<svg xmlns="http://www.w3.org/2000/svg" viewBox="0 0 512 512">
  <defs>
    <linearGradient id="goldGradient" x1="0%" y1="0%" x2="100%" y2="100%">
      <stop offset="0%" style="stop-color:#D4AF37;stop-opacity:1" />
      <stop offset="50%" style="stop-color:#F2D06B;stop-opacity:1" />
      <stop offset="100%" style="stop-color:#B8941E;stop-opacity:1" />
    </linearGradient>
  </defs>
  <rect width="512" height="512" rx="128" fill="#1A1A1A"/>
  <path d="M256 120c-50 0-90 20-90 60 0 35 30 50 60 60l30 10c40 13 50 25 50 45 0 25-25 40-60 40-40 0-70-20-70-20" stroke="url(#goldGradient)" stroke-width="32" stroke-linecap="round" fill="none"/>
  <path d="M256 392c50 0 90-20 90-60 0-35-30-50-60-60l-30-10c-40-13-50-25-50-45 0-25 25-40 60-40 40 0 70 20 70 20" stroke="url(#goldGradient)" stroke-width="32" stroke-linecap="round" fill="none"/>
  <circle cx="256" cy="256" r="230" stroke="url(#goldGradient)" stroke-width="12" fill="none"/>
</svg>
